<svg xmlns="http://www.w3.org/2000/svg" viewBox="0 0 800 500"><defs><linearGradient id="sky" x2="0" y2="1"><stop stop-color="#dde7e7"/><stop offset="1" stop-color="#faf7ef"/></linearGradient></defs><path fill="url(#sky)" d="M0 0h800v500H0z"/><circle cx="575" cy="150" r="70" fill="#f6ecce"/><g fill="none" stroke="#a0babc" opacity=".45"><ellipse cx="575" cy="150" rx="106" ry="106"/><ellipse cx="575" cy="150" rx="135" ry="135"/></g><path d="M0 350Q180 140 380 335T800 270V500H0" fill="#a0babc"/><path d="M0 460Q250 260 460 380T800 330V500H0" fill="#4c777a"/><path d="M360 500Q620 400 510 340Q435 295 490 277" fill="none" stroke="#dde7e7" stroke-width="24" opacity=".8"/><g fill="#4c777a"><path d="M135 335v-175c-80 20-87 92 0 115-70-100 37-136 20-170 110 100 78 171-20 230Z"/><path d="M720 362V244c-54 14-59 62 0 78-48-68 25-92 14-115 74 68 52 116-14 155Z"/></g><g fill="#fff" opacity=".55"><circle cx="302" cy="152" r="3"/><circle cx="250" cy="204" r="2"/><circle cx="351" cy="99" r="2"/></g></svg>